# xmcd
#
# Track frame offsets:
#	150
#	15932
#	30857
#	53440
#	70155
#	82882
#	100282
#	116260
#	130967
#	152130
#	169787
#	186200
#	207850
#	234425
#
# Disc length: 3807 seconds
#
# Revision: 0
# Processed by: cddbd v1.5.1PL0 Copyright (c) Steve Scherf et al.
# Submitted via: audiograbber 1.83.01
#
DISCID=9f0edd0e
DTITLE=Christian Kjellvander - Introducing the Past CD 1
DYEAR=2003
DGENRE=Folk-Rock
TTITLE0=Portugal
TTITLE1=Paige
TTITLE2=Live Ones
TTITLE3=Staying There
TTITLE4=Days of Black (Nights are Lights)
TTITLE5=Sacred Ground
TTITLE6=River Raffle
TTITLE7=Jesus
TTITLE8=Form and the Feeling
TTITLE9=Feeling Deluxe
TTITLE10=Juan de Fuca (live)
TTITLE11=Traveller (live)
TTITLE12=Marrow
TTITLE13=Stum Mountain Man
EXTD=
EXTT0=
EXTT1=
EXTT2=
EXTT3=
EXTT4=
EXTT5=
EXTT6=
EXTT7=
EXTT8=
EXTT9=
EXTT10=
EXTT11=
EXTT12=
EXTT13=
PLAYORDER=
